<svg width="32" height="32" viewBox="0 0 32 32" fill="none" xmlns="http://www.w3.org/2000/svg">
<path d="M7.66675 27.6668C7.66675 24.9054 11.3977 22.6668 16.0001 22.6668C20.6025 22.6668 24.3334 24.9054 24.3334 27.6668" stroke="white" stroke-width="2" stroke-linecap="round" stroke-linejoin="round"/>
<path d="M16.0002 17.6668C18.7617 17.6668 21.0002 15.4282 21.0002 12.6668C21.0002 9.90539 18.7617 7.66681 16.0002 7.66681C13.2388 7.66681 11.0002 9.90539 11.0002 12.6668C11.0002 15.4282 13.2388 17.6668 16.0002 17.6668Z" stroke="white" stroke-width="2" stroke-linecap="round" stroke-linejoin="round"/>
<path d="M16 31C24.2843 31 31 24.2843 31 16C31 7.71573 24.2843 1 16 1C7.71573 1 1 7.71573 1 16C1 24.2843 7.71573 31 16 31Z" stroke="white" stroke-width="2" stroke-miterlimit="10" stroke-linecap="round" stroke-linejoin="round"/>
</svg>
